HIERARCHY
ROOT Hips
{
  OFFSET 5.72205e-005 65.662 3.42586
  CHANNELS 6 Xposition Yposition Zposition Zrotation Xrotation Yrotation
  JOINT Chest
  {
    OFFSET 0 8.7983 -4.7612
    CHANNELS 3 Zrotation Xrotation Yrotation
    JOINT Chest2
    {
      OFFSET 0 8.0291 0.4195
      CHANNELS 3 Zrotation Xrotation Yrotation
      JOINT Chest3
      {
        OFFSET 0 9.9351 -2.2114
        CHANNELS 3 Zrotation Xrotation Yrotation
        JOINT Neck
        {
          OFFSET 0 22.3885 -0.4656
          CHANNELS 3 Zrotation Xrotation Yrotation
          JOINT Head
          {
            OFFSET -0.0001 12.643 3.4389
            CHANNELS 3 Zrotation Xrotation Yrotation
            End Site
            {
              OFFSET 0.0001 17.6655 0.5274
            }
          }
        }
        JOINT LeftCollar
        {
          OFFSET 2.2603 21.606 7.4023
          CHANNELS 3 Zrotation Xrotation Yrotation
          JOINT LeftShoulder
          {
            OFFSET 13.5163 -1.1332 -5.0146
            CHANNELS 3 Zrotation Xrotation Yrotation
            JOINT LeftElbow
            {
              OFFSET -0.0995 -28.05 -0.2431
              CHANNELS 3 Zrotation Xrotation Yrotation
              JOINT LeftWrist
              {
                OFFSET 0.0679 -23.3996 -0.1402
                CHANNELS 3 Zrotation Xrotation Yrotation
                JOINT LeftFinger1
                {
                  OFFSET 0.7932 -9.069 2.5189
                  CHANNELS 3 Zrotation Xrotation Yrotation
                  JOINT LeftFinger11
                  {
                    OFFSET -0.8272 -3.3923 0.5977
                    CHANNELS 3 Zrotation Xrotation Yrotation
                    JOINT LeftFinger12
                    {
                      OFFSET -0.5649 -2.3158 0.4082
                      CHANNELS 3 Zrotation Xrotation Yrotation
                      End Site
                      {
                        OFFSET -0.4919 -1.6479 0.2673
                      }
                    }
                  }
                }
                JOINT LeftFinger2
                {
                  OFFSET 0.9159 -9.2044 0.2193
                  CHANNELS 3 Zrotation Xrotation Yrotation
                  JOINT LeftFinger21
                  {
                    OFFSET 0.0117 -4.1944 -0.0248
                    CHANNELS 3 Zrotation Xrotation Yrotation
                    JOINT LeftFinger22
                    {
                      OFFSET 0.0071 -2.3249 -0.0142
                      CHANNELS 3 Zrotation Xrotation Yrotation
                      End Site
                      {
                        OFFSET -0.1475 -2.0882 0.0028
                      }
                    }
                  }
                }
                JOINT LeftFinger3
                {
                  OFFSET 0.6113 -8.7231 -2.0637
                  CHANNELS 3 Zrotation Xrotation Yrotation
                  JOINT LeftFinger31
                  {
                    OFFSET -0.1927 -3.8059 -0.2383
                    CHANNELS 3 Zrotation Xrotation Yrotation
                    JOINT LeftFinger32
                    {
                      OFFSET -0.1091 -2.1688 -0.1362
                      CHANNELS 3 Zrotation Xrotation Yrotation
                      End Site
                      {
                        OFFSET -0.2358 -1.9176 -0.0906
                      }
                    }
                  }
                }
                JOINT LeftFinger4
                {
                  OFFSET -0.6151 -8.0947 -3.5641
                  CHANNELS 3 Zrotation Xrotation Yrotation
                  JOINT LeftFinger41
                  {
                    OFFSET -0.4882 -2.341 -0.6462
                    CHANNELS 3 Zrotation Xrotation Yrotation
                    JOINT LeftFinger42
                    {
                      OFFSET -0.3575 -1.7167 -0.4742
                      CHANNELS 3 Zrotation Xrotation Yrotation
                      End Site
                      {
                        OFFSET -0.4187 -1.5237 -0.3496
                      }
                    }
                  }
                }
                JOINT LeftFinger0
                {
                  OFFSET -1.42 -1.8761 1.4223
                  CHANNELS 3 Zrotation Xrotation Yrotation
                  JOINT LeftFinger01
                  {
                    OFFSET -1.1471 -3.4929 2.6334
                    CHANNELS 3 Zrotation Xrotation Yrotation
                    JOINT LeftFinger02
                    {
                      OFFSET -0.823 -2.3 1.6571
                      CHANNELS 3 Zrotation Xrotation Yrotation
                      End Site
                      {
                        OFFSET -0.5822 -1.6914 1.1582
                      }
                    }
                  }
                }
              }
            }
          }
        }
        JOINT RightCollar
        {
          OFFSET -2.2603 21.606 7.4023
          CHANNELS 3 Zrotation Xrotation Yrotation
          JOINT RightShoulder
          {
            OFFSET -13.5187 -1.1334 -5.0155
            CHANNELS 3 Zrotation Xrotation Yrotation
            JOINT RightElbow
            {
              OFFSET 0.0994 -28.0499 -0.2431
              CHANNELS 3 Zrotation Xrotation Yrotation
              JOINT RightWrist
              {
                OFFSET -0.0679 -23.3996 -0.1402
                CHANNELS 3 Zrotation Xrotation Yrotation
                JOINT RightFinger1
                {
                  OFFSET -0.7932 -9.0691 2.5189
                  CHANNELS 3 Zrotation Xrotation Yrotation
                  JOINT RightFinger11
                  {
                    OFFSET 0.8272 -3.3923 0.5977
                    CHANNELS 3 Zrotation Xrotation Yrotation
                    JOINT RightFinger12
                    {
                      OFFSET 0.565 -2.3158 0.4082
                      CHANNELS 3 Zrotation Xrotation Yrotation
                      End Site
                      {
                        OFFSET 0.4919 -1.6479 0.2673
                      }
                    }
                  }
                }
                JOINT RightFinger2
                {
                  OFFSET -0.916 -9.2044 0.2193
                  CHANNELS 3 Zrotation Xrotation Yrotation
                  JOINT RightFinger21
                  {
                    OFFSET -0.0117 -4.1944 -0.0248
                    CHANNELS 3 Zrotation Xrotation Yrotation
                    JOINT RightFinger22
                    {
                      OFFSET -0.0071 -2.3249 -0.0142
                      CHANNELS 3 Zrotation Xrotation Yrotation
                      End Site
                      {
                        OFFSET 0.1475 -2.0882 0.0028
                      }
                    }
                  }
                }
                JOINT RightFinger3
                {
                  OFFSET -0.6113 -8.7231 -2.0637
                  CHANNELS 3 Zrotation Xrotation Yrotation
                  JOINT RightFinger31
                  {
                    OFFSET 0.1927 -3.8059 -0.2383
                    CHANNELS 3 Zrotation Xrotation Yrotation
                    JOINT RightFinger32
                    {
                      OFFSET 0.1091 -2.1688 -0.1362
                      CHANNELS 3 Zrotation Xrotation Yrotation
                      End Site
                      {
                        OFFSET 0.2358 -1.9176 -0.0906
                      }
                    }
                  }
                }
                JOINT RightFinger4
                {
                  OFFSET 0.6151 -8.0947 -3.564
                  CHANNELS 3 Zrotation Xrotation Yrotation
                  JOINT RightFinger41
                  {
                    OFFSET 0.4882 -2.341 -0.6462
                    CHANNELS 3 Zrotation Xrotation Yrotation
                    JOINT RightFinger42
                    {
                      OFFSET 0.3574 -1.7166 -0.4742
                      CHANNELS 3 Zrotation Xrotation Yrotation
                      End Site
                      {
                        OFFSET 0.4187 -1.5237 -0.3496
                      }
                    }
                  }
                }
                JOINT RightFinger0
                {
                  OFFSET 1.4199 -1.8761 1.4221
                  CHANNELS 3 Zrotation Xrotation Yrotation
                  JOINT RightFinger01
                  {
                    OFFSET 1.1472 -3.4929 2.6336
                    CHANNELS 3 Zrotation Xrotation Yrotation
                    JOINT RightFinger02
                    {
                      OFFSET 0.8229 -2.3 1.6571
                      CHANNELS 3 Zrotation Xrotation Yrotation
                      End Site
                      {
                        OFFSET 0.5822 -1.6914 1.1582
                      }
                    }
                  }
                }
              }
            }
          }
        }
      }
    }
  }
  JOINT RightHip
  {
    OFFSET -9.412 3.9771 -0.7758
    CHANNELS 3 Zrotation Xrotation Yrotation
    JOINT RightKnee
    {
      OFFSET -0.7531 -40.938 0
      CHANNELS 3 Zrotation Xrotation Yrotation
      JOINT RightAnkle
      {
        OFFSET 0 -40.1986 0
        CHANNELS 3 Zrotation Xrotation Yrotation
        JOINT RightToe
        {
          OFFSET 0 -4.4182 9.239
          CHANNELS 3 Zrotation Xrotation Yrotation
          End Site
          {
            OFFSET 0 0 6.1981
          }
        }
      }
    }
  }
  JOINT LeftHip
  {
    OFFSET 9.4119 3.9773 -0.7758
    CHANNELS 3 Zrotation Xrotation Yrotation
    JOINT LeftKnee
    {
      OFFSET 0.7532 -40.9383 0
      CHANNELS 3 Zrotation Xrotation Yrotation
      JOINT LeftAnkle
      {
        OFFSET 0 -40.1986 0
        CHANNELS 3 Zrotation Xrotation Yrotation
        JOINT LeftToe
        {
          OFFSET 0 -4.4182 9.239
          CHANNELS 3 Zrotation Xrotation Yrotation
          End Site
          {
            OFFSET 0 0 6.1981
          }
        }
      }
    }
  }
}
MOTION
Frames:	4
Frame Time:	0.0333333
5.72205e-005 65.662 3.42586 0 0 -0 0 0 -0 0 0 -0 0 0 -0 0 0 -0 0 0 -0 0 0 -12.5014 88.1196 14.2451 10.6914 -0.00160068 -0.00239207 0.000740045 -8.4365e-005 7.00714e-005 -9.52055e-007 9.93923e-017 -1.98785e-016 -1.59028e-015 9.93923e-017 -5.96354e-016 -1.59028e-015 -9.93923e-017 -5.96354e-016 -1.59028e-015 9.93923e-017 -1.98785e-016 -1.59028e-015 -0.0128176 0.00232552 8.52707e-005 9.93923e-017 5.96354e-016 -0 9.93923e-017 -1.98785e-016 -1.59028e-015 -0.0160551 0.00299681 0.000857156 -2.48481e-016 0 3.18055e-015 9.93923e-017 -1.98785e-016 -1.59028e-015 -0.0125865 0.0031206 0.00282719 0 1.98785e-016 -0 9.93923e-017 -1.98785e-016 -1.59028e-015 9.93923e-017 -5.96354e-016 -1.59028e-015 -9.93923e-017 -5.96354e-016 -1.59028e-015 -0.865644 0.16582 7.03859 -88.0329 10.2057 -10.5567 0.0015593 -0.00248883 -0.000788628 7.87605e-005 4.10553e-005 1.24965e-005 -3.97569e-016 -7.95139e-016 3.18055e-015 -1.98785e-016 -3.97569e-016 3.18055e-015 -1.98785e-016 0 3.18055e-015 -3.97569e-016 -7.95139e-016 3.18055e-015 0.0129473 0.00231697 -8.70038e-005 9.93923e-017 -7.95139e-016 1.59028e-015 -3.97569e-016 -7.95139e-016 3.18055e-015 0.0163314 0.00303369 -0.000872333 3.97569e-016 7.95139e-016 -3.18055e-015 -3.97569e-016 -7.95139e-016 3.18055e-015 0.0145763 0.00367772 -0.00326275 9.93923e-017 -3.97569e-016 -0 -3.97569e-016 -7.95139e-016 3.18055e-015 -1.98785e-016 -3.97569e-016 3.18055e-015 -1.98785e-016 0 3.18055e-015 3.42482 1.32465 -0.0626183 0.000117508 0.717283 0.000978199 -3.4257 -2.04197 -0.0604716 6.47761e-025 0 -0 -3.42483 1.34017 0.0627307 -0.000193936 0.682302 -0.0013703 3.42574 -2.02253 0.0595886 -8.45714e-024 0 -7.40531e-025 
-24.1855 12.8734 5.50917 -0 0 7.97822e-010 -0.104109 -0.107509 -0.0797368 -0.208368 -0.214872 -0.159669 -0.208375 -0.214879 -0.159674 0.266744 0.105848 -0.000845826 4.52697e-008 0.890024 -3.57203e-008 -23.6114 -29.7217 43.4592 44.2159 7.43085 4.45938 -29.2751 5.09934 -13.0135 22.1857 -3.74652 2.22112 -8.53274e-007 -1.40001e-006 5.01111e-009 -6.9494e-007 -1.59995e-006 6.90971e-006 1.98785e-016 -1.98785e-016 -3.18055e-015 -8.53274e-007 -1.40001e-006 5.01111e-009 -0.0128107 0.00232422 9.00908e-005 -4.74774e-006 -3.48022e-006 -7.02822e-006 -8.53274e-007 -1.40001e-006 5.01111e-009 -0.0160669 0.00300105 0.000868193 -4.45628e-006 -1.88316e-006 -4.87831e-006 -8.53274e-007 -1.40001e-006 5.01111e-009 -0.0125792 0.00312106 0.0028274 2.59991e-006 -2.75043e-006 -4.61957e-006 -8.53274e-007 -1.40001e-006 5.01111e-009 -6.9494e-007 -1.59995e-006 6.90971e-006 1.98785e-016 -1.98785e-016 -3.18055e-015 23.2081 -28.9105 -49.1237 -44.736 4.69341 -0.556314 28.8728 4.97705 13.7336 -22.1669 -3.72733 -2.40141 -6.53668e-007 1.57327e-006 -1.21329e-009 -1.93432e-006 4.74597e-006 -3.59039e-009 -6.40328e-007 1.58635e-006 -1.18859e-009 -6.53668e-007 1.57327e-006 -1.21329e-009 0.0129241 0.00230944 -7.95909e-005 -1.27939e-006 3.18241e-006 4.87312e-006 -6.53668e-007 1.57327e-006 -1.21329e-009 0.0163219 0.00303261 -0.000865408 -6.53668e-007 1.57328e-006 -1.24793e-009 -6.53668e-007 1.57327e-006 -1.21329e-009 0.0145532 0.00367131 -0.0032475 -1.9483e-006 4.73241e-006 -2.44138e-006 -6.53668e-007 1.57327e-006 -1.21329e-009 -1.93432e-006 4.74597e-006 -3.59039e-009 -6.40328e-007 1.58635e-006 -1.18859e-009 -4.26068 -38.848 -10.9022 -175.642 33.2275 172.653 -5.07376 43.9743 -9.24821 7.95139e-016 1.69842e-009 3.18055e-015 4.22591 -38.7316 10.7816 175.711 33.3175 -172.714 5.22205 43.3727 9.08211 -7.95139e-016 0 -0 
-24.1855 12.8734 5.50917 -0 0 7.97822e-010 -0.104109 -0.107509 -0.0797368 -0.208368 -0.214872 -0.159669 -0.208375 -0.214879 -0.159674 0.409173 0.250544 -0.0143272 7.59122e-009 1.77118 2.09119e-007 -23.6114 -29.7217 43.4592 44.2159 7.43081 4.45938 -29.2751 5.09937 -13.0135 22.1856 -3.74652 2.22112 -4.69301e-006 -1.98362e-006 2.75617e-008 1.02393e-005 -1.90713e-006 -6.0135e-008 1.16103e-006 -6.32037e-006 2.44534e-006 -4.69301e-006 -1.98362e-006 2.75617e-008 -0.012842 0.00232943 9.27285e-005 -1.2799e-006 -3.21288e-006 7.46476e-009 -4.69301e-006 -1.98362e-006 2.75617e-008 -0.0160543 0.00299579 0.000853784 -6.3995e-007 -1.60645e-006 3.72466e-009 -4.69301e-006 -1.98362e-006 2.75617e-008 -0.0125665 0.00311607 0.00282517 -4.47966e-006 -1.89334e-006 2.60579e-008 -4.69301e-006 -1.98362e-006 2.75617e-008 1.02393e-005 -1.90713e-006 -6.0135e-008 1.16103e-006 -6.32037e-006 2.44534e-006 23.2081 -28.9105 -49.1237 -44.736 4.69334 -0.556291 28.8728 4.9771 13.7335 -22.1669 -3.72733 -2.40141 5.73076e-006 4.20928e-006 -1.18095e-005 -2.13538e-017 1.94126e-017 1.27222e-014 -1.93432e-006 4.74597e-006 -3.59028e-009 5.73076e-006 4.20928e-006 -1.18095e-005 0.0129317 0.00230885 -7.71396e-005 -1.93495e-006 4.7369e-006 -2.44144e-006 5.73076e-006 4.20928e-006 -1.18095e-005 0.016327 0.00302916 -0.000865399 -1.13782e-005 9.00701e-007 -7.15088e-006 5.73076e-006 4.20928e-006 -1.18095e-005 0.0145507 0.00366843 -0.00324994 -6.53026e-007 1.58329e-006 2.43638e-006 5.73076e-006 4.20928e-006 -1.18095e-005 -2.13538e-017 1.94126e-017 1.27222e-014 -1.93432e-006 4.74597e-006 -3.59028e-009 -4.26068 -38.848 -10.9022 -175.642 33.2275 172.653 -5.07375 43.9743 -9.24822 7.50248e-007 1.38296e-007 -4.03344e-007 4.22592 -38.7316 10.7816 175.711 33.3175 -172.714 5.22205 43.3727 9.08213 5.7572e-008 3.37285e-006 2.19568e-006 
-24.1855 12.8734 5.50917 -0 0 7.80478e-010 -0.104109 -0.107509 -0.0797367 -0.208368 -0.214872 -0.159669 -0.208375 -0.214879 -0.159674 0.551667 0.395237 -0.0281709 -2.453e-009 2.65415 -4.28831e-009 -23.6114 -29.7217 43.4591 44.2159 7.43086 4.4594 -29.2752 5.09931 -13.0136 22.1857 -3.74651 2.22111 1.10348e-031 -3.97569e-016 1.59028e-014 1.98785e-016 -7.95139e-016 1.59028e-014 1.98785e-016 -7.95139e-016 1.27222e-014 1.10348e-031 -3.97569e-016 1.59028e-014 -0.012829 0.00232434 7.61679e-005 -1.26525e-006 -1.89215e-006 1.1667e-005 1.10348e-031 -3.97569e-016 1.59028e-014 -0.0160603 0.0030001 0.00084922 -5.44975e-007 -1.55005e-006 2.4553e-006 1.10348e-031 -3.97569e-016 1.59028e-014 -0.0125964 0.00312422 0.00283026 1.32417e-031 -7.95139e-016 9.54166e-015 1.10348e-031 -3.97569e-016 1.59028e-014 1.98785e-016 -7.95139e-016 1.59028e-014 1.98785e-016 -7.95139e-016 1.27222e-014 23.2081 -28.9105 -49.1237 -44.736 4.69322 -0.556322 28.8729 4.97724 13.7334 -22.1669 -3.72734 -2.40142 -6.29638e-007 1.59577e-006 -4.69236e-006 -2.75658e-017 -2.79541e-017 3.18055e-015 -1.86361e-017 -2.87306e-017 -0 -6.29638e-007 1.59577e-006 -4.69236e-006 0.0129526 0.00231185 -8.68485e-005 2.17421e-017 1.0871e-017 -0 -6.29638e-007 1.59577e-006 -4.69236e-006 0.0163226 0.00303107 -0.000872532 -1.70831e-017 -1.55301e-018 -0 -6.29638e-007 1.59577e-006 -4.69236e-006 0.0145912 0.0036776 -0.00325474 -4.65902e-018 2.48481e-017 3.18055e-015 -6.29638e-007 1.59577e-006 -4.69236e-006 -2.75658e-017 -2.79541e-017 3.18055e-015 -1.86361e-017 -2.87306e-017 -0 -4.26069 -38.848 -10.9022 -175.642 33.2274 172.653 -5.07377 43.9743 -9.2482 6.41229e-008 -1.74407e-008 1.87779e-006 4.22592 -38.7316 10.7815 175.711 33.3174 -172.714 5.22205 43.3727 9.08214 -4.13719e-008 -9.03519e-009 -9.38624e-007 
